<svg xmlns="http://www.w3.org/2000/svg" width="30" height="27" viewBox="0 0 30 27">
    <path fill="#0066AD" fill-rule="nonzero" d="M15.45 0l14.512 5.786v1.928h-1.935c0 .26-.113.508-.31.678-.198.187-.46.29-.733.286H3.915a1.045 1.045 0 0 1-.733-.286.893.893 0 0 1-.31-.678H.937V5.786L15.45 0zM4.807 9.643h3.87v11.571h1.935V9.643h3.87v11.571h1.935V9.643h3.87v11.571h1.935V9.643h3.87v11.571h.892c.272-.004.535.099.733.286.197.17.31.418.31.678v.964H2.872v-.964c0-.26.113-.508.31-.678.198-.187.46-.29.733-.286h.892V9.643zm24.112 14.464c.272-.004.535.099.733.286.197.17.31.418.31.678V27H.937v-1.929c0-.26.113-.508.31-.678.198-.187.46-.29.733-.286h26.939z"/>
</svg>
