<svg xmlns="http://www.w3.org/2000/svg" width="24" height="27" viewBox="0 0 24 27">
    <path fill="#0066AD" fill-rule="nonzero" d="M22.118 7.172c.16.165.301.347.422.542h-7.112V.6c.195.12.377.262.542.422l6.148 6.15zm-7.172 2.471h8.2v15.911A1.44 1.44 0 0 1 21.7 27H1.45A1.44 1.44 0 0 1 0 25.554V1.446A1.4 1.4 0 0 1 .422.421 1.4 1.4 0 0 1 1.446 0H13.5v8.2a1.44 1.44 0 0 0 1.446 1.446v-.003zm2.411 11.089v-.964a.464.464 0 0 0-.482-.482H6.268a.464.464 0 0 0-.482.482v.964a.464.464 0 0 0 .482.482h10.607a.464.464 0 0 0 .482-.482zm0-3.857v-.964a.464.464 0 0 0-.482-.482H6.268a.464.464 0 0 0-.482.482v.964a.464.464 0 0 0 .482.482h10.607a.464.464 0 0 0 .482-.482zm0-3.857v-.964a.464.464 0 0 0-.482-.482H6.268a.464.464 0 0 0-.482.482v.964a.464.464 0 0 0 .482.482h10.607a.464.464 0 0 0 .482-.482z"/>
</svg>
