<?xml version="1.0" encoding="utf-8"?>
<!-- Generator: Adobe Illustrator 15.0.0, SVG Export Plug-In . SVG Version: 6.00 Build 0)  -->
<!DOCTYPE svg PUBLIC "-//W3C//DTD SVG 1.1//EN" "http://www.w3.org/Graphics/SVG/1.1/DTD/svg11.dtd">
<svg version="1.1" id="图层_1" xmlns="http://www.w3.org/2000/svg" xmlns:xlink="http://www.w3.org/1999/xlink" x="0px" y="0px"
	 width="18px" height="20px" viewBox="0 0 18 20" enable-background="new 0 0 18 20" xml:space="preserve">
<g opacity="0.1">
	<path fill="#FFFFFF" d="M3.653,7.45h1.034V6.416H3.653V7.45z M3.062,8.042h2.217V5.825H3.062V8.042z M6.017,6.416h5.7V5.825h-5.7
		V6.416z M6.017,7.524h4.221v-0.59H6.017V7.524z M3.653,13.652h1.034v-1.034H3.653V13.652z M3.062,14.243h2.217v-2.216H3.062V14.243
		z M6.017,12.618h5.7v-0.591h-5.7V12.618z M6.017,13.727h4.221v-0.592H6.017V13.727z M2.126,11.219h2.216V9.002H2.126V11.219z
		 M5.081,9.593h5.7v-0.59h-5.7V9.593z M5.081,10.702h4.222v-0.591H5.08L5.081,10.702z"/>
	<path fill="#FFFFFF" d="M3.578,0L0,3.484v14.841h8.555l0.407-1.034H1.034V4.286h2.808V1.238l0.17-0.204h8.993v11.509l1.034-0.936V0
		H3.578z M9.33,19.503c-0.055,0-0.1-0.045-0.1-0.101c0-0.006,0-0.012,0.001-0.018c0.12-0.64,0.534-1.537,0.661-1.664l5.996-5.996
		c0.166-0.157,0.426-0.157,0.59,0l0.53,0.529c0.161,0.164,0.161,0.427,0,0.59l-5.995,5.997c-0.127,0.127-1.025,0.54-1.665,0.66
		C9.343,19.502,9.336,19.503,9.33,19.503"/>
</g>
</svg>
