<?xml version="1.0" encoding="utf-8"?>
<!-- Generator: Adobe Illustrator 15.0.0, SVG Export Plug-In . SVG Version: 6.00 Build 0)  -->
<!DOCTYPE svg PUBLIC "-//W3C//DTD SVG 1.0//EN" "http://www.w3.org/TR/2001/REC-SVG-20010904/DTD/svg10.dtd">
<svg version="1.0" id="图层_1" xmlns="http://www.w3.org/2000/svg" xmlns:xlink="http://www.w3.org/1999/xlink" x="0px" y="0px"
	 width="20px" height="20px" viewBox="0 0 20 20" enable-background="new 0 0 20 20" xml:space="preserve">
<g opacity="0.1">
	<path fill="#FFFFFF" d="M3.654,10.022c-0.002,0.021-0.006,0.041-0.012,0.06C3.649,10.063,3.652,10.042,3.654,10.022 M3.608,10.152
		c-0.005,0.007-0.01,0.009-0.015,0.015c0.01-0.014,0.02-0.027,0.028-0.042C3.617,10.134,3.614,10.145,3.608,10.152 M3.485,10.262
		c0.013-0.008,0.024-0.017,0.036-0.026c-0.011,0.009-0.023,0.018-0.036,0.025 M3.218,10.283c0.035,0.012,0.071,0.021,0.11,0.021
		C3.333,10.3,3.284,10.306,3.218,10.283 M3.134,10.236L3.134,10.236 M3.002,10.025c0.003,0.02,0.005,0.04,0.011,0.058
		C3.008,10.065,3.005,10.045,3.002,10.025 M3.048,10.152c-0.007-0.008-0.01-0.019-0.015-0.029c0.009,0.016,0.02,0.03,0.03,0.044
		C3.058,10.161,3.053,10.159,3.048,10.152 M3.013,9.498c-0.009,0.113-0.014,0.227-0.017,0.34L3,9.766
		C3.001,9.683,3.006,9.593,3.013,9.498 M13.912,3.69c-0.061-0.103-0.143-0.192-0.24-0.262l-0.063-0.041l-0.034-0.02l-0.011-0.004
		l-0.021-0.01l-0.042-0.022l-0.084-0.042c-0.891-0.449-1.872-0.734-2.85-0.763C9.617,2.48,8.667,2.625,7.772,2.949
		c-0.821,0.307-1.58,0.759-2.24,1.336C4.955,4.791,4.459,5.381,4.06,6.036C3.731,6.585,3.474,7.173,3.292,7.787
		C3.156,8.257,3.064,8.738,3.02,9.225c-0.013,0.202-0.03,0.383-0.03,0.54c-0.002,0.155-0.018,0.299,0.055,0.39
		c0.009,0.011,0.018,0.015,0.027,0.025c0.015,0.018,0.032,0.034,0.05,0.048c0.02,0.016,0.039,0.03,0.058,0.039
		c0.01,0.005,0.02,0.01,0.032,0.014c0.07,0.026,0.121,0.02,0.116,0.023c0.039,0,0.075-0.01,0.11-0.021
		c-0.067,0.023-0.116,0.017-0.11,0.021c-0.006-0.004,0.046,0.003,0.116-0.023l0.032-0.014c0.02-0.011,0.039-0.024,0.057-0.039
		c0.018-0.014,0.035-0.03,0.05-0.048c0.01-0.01,0.019-0.014,0.028-0.025c0.067-0.086,0.059-0.218,0.063-0.361
		C3.676,9.735,3.68,9.678,3.683,9.62C3.72,9.003,3.856,8.397,4.087,7.824c0.21-0.518,0.512-1.081,0.96-1.598
		c0.471-0.557,1.041-1.021,1.68-1.37C7.426,4.474,8.194,4.233,8.986,4.15c0.2-0.034,0.408-0.026,0.613-0.043
		c0.206,0.012,0.413,0,0.62,0.03c0.414,0.024,0.824,0.118,1.229,0.225c0.192,0.072,0.405,0.128,0.583,0.214l0.279,0.116l0.307,0.159
		l0.156,0.08c0.438,0.21,0.963,0.026,1.174-0.412C14.075,4.254,14.063,3.943,13.912,3.69"/>
	<path fill="#FFFFFF" d="M9.967,1.416c-4.715,0-8.55,3.837-8.55,8.553c0,4.715,3.835,8.551,8.55,8.551s8.553-3.836,8.553-8.551
		C18.52,5.253,14.682,1.416,9.967,1.416 M9.967,19.936C4.47,19.936,0,15.465,0,9.969C0,4.472,4.47,0,9.967,0
		c5.497,0,9.969,4.472,9.969,9.97C19.936,15.465,15.464,19.936,9.967,19.936"/>
	<path fill="#FFFFFF" d="M9.967,10.305c-0.186,0-0.337-0.151-0.337-0.337c0-0.09,0.036-0.176,0.1-0.239l4.712-4.713
		c0.133-0.131,0.346-0.131,0.478,0.002c0.131,0.132,0.131,0.344,0,0.476l-4.713,4.712C10.143,10.27,10.057,10.306,9.967,10.305"/>
</g>
</svg>
