<svg xmlns="http://www.w3.org/2000/svg" xmlns:xlink="http://www.w3.org/1999/xlink" width="16" height="16" viewBox="0 0 16 16">
    <defs>
        <path id="a" d="M223.735 23.075a6.997 6.997 0 0 0 1.405-4.22c0-3.78-2.948-6.855-6.57-6.855-3.623 0-6.57 3.075-6.57 6.855 0 3.779 2.947 6.854 6.57 6.854a6.35 6.35 0 0 0 3.808-1.28l3.147 3.285a.917.917 0 0 0 1.328 0 1.01 1.01 0 0 0 0-1.385l-3.118-3.254zm-5.165-9.116c2.588 0 4.692 2.196 4.692 4.896 0 2.7-2.104 4.895-4.692 4.895-2.587 0-4.694-2.196-4.694-4.895 0-2.7 2.107-4.896 4.694-4.896z"/>
    </defs>
    <g fill="none" fill-rule="evenodd" transform="translate(-212 -12)">
        <rect width="449" height="39" x=".5" y=".5" stroke="#E6E6E6" rx="4"/>
        <use fill="#989898" fill-opacity=".61" xlink:href="#a"/>
        <path stroke="#FFF" stroke-width=".6" d="M223.495 22.895l-.154.204 3.295 3.438a.71.71 0 0 1 0 .97.616.616 0 0 1-.894-.001l-3.148-3.284-.183-.192-.213.159a6.048 6.048 0 0 1-3.628 1.22c-3.454 0-6.27-2.938-6.27-6.554 0-3.617 2.816-6.555 6.27-6.555 3.454 0 6.27 2.938 6.27 6.555 0 1.482-.48 2.891-1.345 4.04zm-4.925-9.236c2.756 0 4.992 2.333 4.992 5.196 0 2.862-2.235 5.195-4.992 5.195-2.756 0-4.994-2.333-4.994-5.195 0-2.863 2.238-5.196 4.994-5.196z"/>
    </g>
</svg>
