<svg xmlns="http://www.w3.org/2000/svg" width="22" height="27" viewBox="0 0 22 27">
    <path fill="#0066AD" fill-rule="nonzero" d="M20.25 0a.927.927 0 0 1 .678.286.927.927 0 0 1 .286.678v25.072a.978.978 0 0 1-.964.964H.964A.978.978 0 0 1 0 26.036V.964A.927.927 0 0 1 .286.286.927.927 0 0 1 .964 0H20.25zM7.714 4.339V5.3a.464.464 0 0 0 .482.482h.964a.464.464 0 0 0 .482-.482v-.961a.464.464 0 0 0-.482-.482H8.2a.464.464 0 0 0-.482.482h-.004zm0 3.857v.964a.464.464 0 0 0 .482.482h.964a.464.464 0 0 0 .482-.482V8.2a.464.464 0 0 0-.482-.482H8.2a.464.464 0 0 0-.482.482l-.004-.004zm0 3.857v.964a.464.464 0 0 0 .482.482h.964a.464.464 0 0 0 .482-.482v-.964a.464.464 0 0 0-.482-.482H8.2a.464.464 0 0 0-.482.482h-.004zm0 3.857v.964a.464.464 0 0 0 .482.482h.964a.464.464 0 0 0 .482-.482v-.964a.464.464 0 0 0-.482-.482H8.2a.464.464 0 0 0-.482.482h-.004zm-1.929 4.821v-.964a.464.464 0 0 0-.482-.482h-.964a.464.464 0 0 0-.482.482v.964a.464.464 0 0 0 .482.482h.964a.464.464 0 0 0 .482-.482zm0-3.857v-.964a.464.464 0 0 0-.482-.482h-.964a.464.464 0 0 0-.482.482v.964a.464.464 0 0 0 .482.482h.964a.464.464 0 0 0 .482-.482zm0-3.857v-.964a.464.464 0 0 0-.482-.482h-.964a.464.464 0 0 0-.482.482v.964a.464.464 0 0 0 .482.482h.964a.464.464 0 0 0 .482-.482zm0-3.857V8.2a.464.464 0 0 0-.482-.482h-.964a.464.464 0 0 0-.482.482v.964a.464.464 0 0 0 .482.482h.964a.464.464 0 0 0 .482-.482V9.16zm0-3.857v-.964a.464.464 0 0 0-.482-.482h-.964a.464.464 0 0 0-.482.482V5.3a.464.464 0 0 0 .482.482h.964a.464.464 0 0 0 .482-.482v.003zM13.5 24.589V21.7a.464.464 0 0 0-.482-.482H8.2a.464.464 0 0 0-.482.482v2.893a.464.464 0 0 0 .482.482h4.821a.464.464 0 0 0 .482-.482l-.003-.004zm0-7.714v-.964a.464.464 0 0 0-.482-.482h-.964a.464.464 0 0 0-.482.482v.964a.464.464 0 0 0 .482.482h.964a.464.464 0 0 0 .482-.482zm0-3.857v-.964a.464.464 0 0 0-.482-.482h-.964a.464.464 0 0 0-.482.482v.964a.464.464 0 0 0 .482.482h.964a.464.464 0 0 0 .482-.482zm0-3.857V8.2a.464.464 0 0 0-.482-.482h-.964a.464.464 0 0 0-.482.482v.964a.464.464 0 0 0 .482.482h.964a.464.464 0 0 0 .482-.482v-.003zm0-3.857v-.965a.464.464 0 0 0-.482-.482h-.964a.464.464 0 0 0-.482.482V5.3a.464.464 0 0 0 .482.482h.964A.464.464 0 0 0 13.5 5.3v.004zm3.857 15.429v-.964a.464.464 0 0 0-.482-.482h-.964a.464.464 0 0 0-.482.482v.964a.464.464 0 0 0 .482.482h.964a.464.464 0 0 0 .482-.482zm0-3.857v-.964a.464.464 0 0 0-.482-.482h-.964a.464.464 0 0 0-.482.482v.964a.464.464 0 0 0 .482.482h.964a.464.464 0 0 0 .482-.482zm0-3.857v-.964a.464.464 0 0 0-.482-.482h-.964a.464.464 0 0 0-.482.482v.964a.464.464 0 0 0 .482.482h.964a.464.464 0 0 0 .482-.482zm0-3.857V8.2a.464.464 0 0 0-.482-.482h-.964a.464.464 0 0 0-.482.482v.964a.464.464 0 0 0 .482.482h.964a.464.464 0 0 0 .482-.482v-.002zm0-3.857v-.966a.464.464 0 0 0-.482-.482h-.964a.464.464 0 0 0-.482.482V5.3a.464.464 0 0 0 .482.482h.964a.464.464 0 0 0 .482-.482v.005z"/>
</svg>
