<?xml version="1.0" encoding="UTF-8"?>
<svg width="20px" height="20px" viewBox="0 0 20 20" version="1.1" xmlns="http://www.w3.org/2000/svg" xmlns:xlink="http://www.w3.org/1999/xlink">
    <!-- Generator: sketchtool 46.1 (44463) - http://www.bohemiancoding.com/sketch -->
    <title>71CF3DA2-85A1-45D2-A7FC-F327E59C8A19</title>
    <desc>Created with sketchtool.</desc>
    <defs></defs>
    <g id="01-Dashboard" stroke="none" stroke-width="1" fill="none" fill-rule="evenodd">
        <g id="01-1-Dealer-Group-Work-Queue" transform="translate(-260.000000, -19.000000)" fill="#FFFFFF">
            <g id="top-nav">
                <g id="icon--dashboard" transform="translate(260.000000, 19.000000)">
                    <g id="icon-mydashboard">
                        <path d="M3.65443636,10.0222545 C3.65152727,10.0426182 3.64825455,10.0633455 3.64243636,10.0815273 C3.64934545,10.0629818 3.65116364,10.0422545 3.65443636,10.0222545 M3.60789091,10.1524364 C3.6028,10.1589818 3.59770909,10.1608 3.59298182,10.1669818 C3.60316364,10.1531636 3.61334545,10.1397091 3.62134545,10.1248 C3.61661818,10.1338909 3.61407273,10.1444364 3.60789091,10.1524364 M3.48461818,10.2611636 C3.49770909,10.2542545 3.50898182,10.2451636 3.52098182,10.2364364 C3.50825455,10.2462545 3.49698182,10.2542545 3.48461818,10.2611636 M3.21807273,10.2826182 C3.25298182,10.2946182 3.28898182,10.3044364 3.32789091,10.3044364 C3.33334545,10.3004364 3.28425455,10.3058909 3.21807273,10.2826182 M3.13443636,10.2364364 C3.1468,10.2451636 3.15807273,10.2542545 3.17116364,10.2611636 C3.1588,10.2542545 3.14716364,10.2462545 3.13443636,10.2364364 M3.00170909,10.0248 C3.00498182,10.0444364 3.0068,10.0648 3.01334545,10.0829818 C3.00752727,10.0651636 3.00461818,10.0448 3.00170909,10.0248 M3.04789091,10.1524364 C3.04098182,10.1440727 3.0388,10.1331636 3.03334545,10.1233455 C3.04170909,10.1389818 3.05225455,10.1528 3.0628,10.1669818 C3.05770909,10.1611636 3.05298182,10.1589818 3.04789091,10.1524364 M3.01261818,9.49789091 C3.00534545,9.61098182 2.99807273,9.72407273 2.99625455,9.83825455 C2.99698182,9.81425455 2.99807273,9.79025455 2.99916364,9.76552727 C3.00025455,9.68261818 3.00534545,9.5928 3.01261818,9.49789091 M13.9118909,3.68989091 C13.8729818,3.62516364 13.8257091,3.56516364 13.7711636,3.51243636 C13.7464364,3.48807273 13.7151636,3.45970909 13.6711636,3.42843636 L13.6086182,3.38698182 L13.5751636,3.36770909 L13.5646182,3.36261818 L13.5435273,3.35207273 L13.5020727,3.33098182 L13.4180727,3.28916364 C12.5278909,2.84043636 11.5460727,2.55498182 10.5678909,2.52552727 C9.59225455,2.47752727 8.63225455,2.63570909 7.77152727,2.9488 C6.91007273,3.27061818 6.1588,3.73752727 5.53116364,4.28516364 C4.91952727,4.82261818 4.42389091,5.43316364 4.06025455,6.03607273 C3.70389091,6.64661818 3.44570909,7.23934545 3.29152727,7.78698182 C3.13589091,8.3328 3.0548,8.82116364 3.02025455,9.22516364 C3.0068,9.42734545 2.99043636,9.60807273 2.9908,9.76516364 C2.98752727,9.91970909 2.97225455,10.0637091 3.04461818,10.1546182 C3.05370909,10.1662545 3.0628,10.1702545 3.07152727,10.1804364 C3.0868,10.1986182 3.10389091,10.2138909 3.1228,10.2284364 C3.1428,10.2444364 3.16098182,10.2575273 3.17952727,10.2669818 C3.19043636,10.2720727 3.20061818,10.2771636 3.21225455,10.2811636 C3.28207273,10.3066182 3.33334545,10.3000727 3.32789091,10.3044364 L3.32789091,10.3044364 C3.3668,10.3044364 3.4028,10.2946182 3.43770909,10.2826182 C3.37116364,10.3058909 3.32207273,10.3004364 3.32789091,10.3044364 C3.32170909,10.3000727 3.37370909,10.3066182 3.44352727,10.2811636 C3.4548,10.2771636 3.46498182,10.2720727 3.47589091,10.2669818 C3.4948,10.2575273 3.51261818,10.2444364 3.53298182,10.2284364 C3.55152727,10.2138909 3.56861818,10.1986182 3.58389091,10.1804364 C3.59298182,10.1702545 3.60170909,10.1662545 3.6108,10.1546182 C3.67770909,10.0691636 3.66970909,9.93716364 3.67407273,9.79352727 C3.67589091,9.73534545 3.67952727,9.67789091 3.6828,9.62007273 C3.68934545,9.49898182 3.69989091,9.37025455 3.71989091,9.22770909 C3.77334545,8.82770909 3.87516364,8.34334545 4.08643636,7.82370909 C4.29734545,7.30552727 4.59916364,6.74298182 5.04643636,6.22552727 C5.47698182,5.70661818 6.06098182,5.22189091 6.72789091,4.85570909 C7.39589091,4.48007273 8.17552727,4.24225455 8.98570909,4.14989091 C9.18643636,4.11570909 9.39407273,4.12370909 9.5988,4.10734545 C9.80498182,4.11934545 10.0118909,4.10698182 10.2184364,4.13716364 C10.6329818,4.1608 11.0431636,4.25498182 11.4475273,4.36189091 C11.6413455,4.43425455 11.8544364,4.48989091 12.0311636,4.57607273 L12.3100727,4.69243636 L12.6169818,4.85098182 L12.7733455,4.93134545 C12.9075273,4.99934545 13.0620727,5.02989091 13.2111636,5.02043636 C13.5093455,5.00589091 13.7962545,4.82261818 13.9348,4.55498182 C14.0791636,4.28770909 14.0697091,3.94625455 13.9118909,3.68989091" id="Fill-1"></path>
                        <path d="M9.96690909,1.41636364 C5.25236364,1.41636364 1.41672727,5.25345455 1.41672727,9.96945455 C1.41672727,14.6832727 5.25236364,18.5181818 9.96690909,18.5181818 C14.6821818,18.5181818 18.5185455,14.6832727 18.5185455,9.96945455 C18.5185455,5.25345455 14.6821818,1.41636364 9.96690909,1.41636364 M9.96690909,19.9349091 C4.47090909,19.9349091 0,15.4647273 0,9.96945455 C0,4.472 4.47090909,0 9.96690909,0 C15.4636364,0 19.9349091,4.472 19.9349091,9.96945455 C19.9349091,15.4647273 15.4636364,19.9349091 9.96690909,19.9349091" id="Fill-3"></path>
                        <path d="M9.96745455,10.3052727 C9.88090909,10.3052727 9.79436364,10.2721818 9.72854545,10.2063636 C9.59654545,10.0743636 9.59654545,9.86054545 9.72854545,9.72854545 L14.4409091,5.01581818 C14.5732727,4.88381818 14.7867273,4.88381818 14.9190909,5.01581818 C15.0507273,5.14781818 15.0507273,5.36163636 14.9190909,5.49363636 L10.2063636,10.2063636 C10.1405455,10.2721818 10.0536364,10.3052727 9.96745455,10.3052727" id="Fill-6"></path>
                    </g>
                </g>
            </g>
        </g>
    </g>
</svg>