<svg xmlns="http://www.w3.org/2000/svg" xmlns:xlink="http://www.w3.org/1999/xlink" width="203" height="35" viewBox="0 0 203 35">
    <defs>
        <path id="a" d="M28.93.372H0v28.93h28.93V.372z"/>
        <path id="c" d="M0 29.628h189.892V.698H0z"/>
    </defs>
    <g fill="none" fill-rule="evenodd">
        <g transform="translate(7 2.326)">
            <mask id="b" fill="#fff">
                <use xlink:href="#a"/>
            </mask>
            <path fill="#FFF" d="M21.59 18.865H19.85v-8.406l-1.273 8.406h-1.74l-1.375-8.29v8.29h-1.607V7.143h2.562l1.357 8.322 1.256-8.322h2.561v11.722zm-14.102 3.8h13.954v-2.092H7.488v2.093zM7.19 9.956c0-1.875.938-2.946 2.746-2.946 1.809 0 2.747 1.071 2.747 2.947v1.139H10.94V9.838c0-.837-.368-1.155-.954-1.155-.587 0-.955.318-.955 1.155v6.331c0 .837.368 1.139.955 1.139.586 0 .954-.302.954-1.139v-2.16h-.837v-1.675h2.579v3.718c0 1.874-.938 2.946-2.747 2.946-1.808 0-2.746-1.072-2.746-2.946V9.956zM0 29.303h28.93V.372H0v28.93z" mask="url(#b)"/>
        </g>
        <g transform="translate(7 2)">
            <mask id="d" fill="#fff">
                <use xlink:href="#c"/>
            </mask>
            <path fill="#FFF" d="M42.384 29.628h.349V.698h-.35zM63.101 14.025h1.715v3.852c-1.055.791-2.638 1.334-4.058 1.334-3.062 0-5.42-2.271-5.42-5.216 0-2.944 2.402-5.185 5.537-5.185 1.48 0 2.988.571 4.014 1.465l-1.114 1.436c-.776-.718-1.86-1.158-2.9-1.158-1.978 0-3.53 1.51-3.53 3.442 0 1.948 1.567 3.457 3.545 3.457.702 0 1.508-.249 2.211-.644v-2.783zM71.702 8.868l3.223 6.577 3.208-6.577h2.256v10.254h-1.787l-.015-7.324-3.032 6.27H74.28l-3.032-6.27v7.324h-1.816V8.868zM99.084 8.868l-.015 1.715h-5.097v2.768h4.643v1.713h-4.643v4.058h-1.963V8.868zM102.895 19.122h1.963V8.87h-1.963zM111.583 8.868l5.288 7.017V8.868h1.904v10.254h-1.86l-5.274-7.002v7.002h-1.92V8.868zM129.617 15.27l-1.787-4.307-1.816 4.307h3.603zm.703 1.685h-5.01l-.908 2.167h-2.036l4.498-10.253h2.035l4.439 10.253h-2.11l-.908-2.167zM138.79 8.868l5.288 7.017V8.868h1.904v10.254h-1.86l-5.274-7.002v7.002h-1.92V8.868zM155.491 10.553c-1.933 0-3.442 1.494-3.442 3.398 0 1.92 1.509 3.413 3.442 3.413.982 0 2.021-.454 2.783-1.2l1.158 1.288c-1.055 1.07-2.564 1.758-4.043 1.758-3.018 0-5.347-2.27-5.347-5.23 0-2.929 2.358-5.17 5.42-5.17 1.465 0 2.959.63 3.955 1.64l-1.143 1.436c-.732-.82-1.772-1.333-2.783-1.333M163.39 19.122h1.962V8.87h-1.963zM176.193 15.27l-1.788-4.307-1.816 4.307h3.604zm.703 1.685h-5.01l-.908 2.167h-2.036l4.497-10.253h2.036l4.438 10.253h-2.109l-.908-2.167zM185.468 8.868v8.482h4.424v1.772h-6.387V8.868z" mask="url(#d)"/>
        </g>
    </g>
</svg>
