<?xml version="1.0" encoding="UTF-8"?>
<svg width="15px" height="15px" viewBox="0 0 15 15" version="1.1" xmlns="http://www.w3.org/2000/svg" xmlns:xlink="http://www.w3.org/1999/xlink">
    <!-- Generator: sketchtool 46.1 (44463) - http://www.bohemiancoding.com/sketch -->
    <title>FB08DC10-EDC7-4684-BD08-C9983B4C35C7</title>
    <desc>Created with sketchtool.</desc>
    <defs></defs>
    <g id="01-Dashboard" stroke="none" stroke-width="1" fill="none" fill-rule="evenodd">
        <g id="01-5-Popup---Filter" transform="translate(-537.000000, -606.000000)" fill="#D2E5FA">
            <g id="Group-17" transform="translate(537.000000, 606.000000)">
                <g id="UI-icon/unchecked">
                    <g id="icon--checked">
                        <path d="M7.50511552,15.0001585 C7.23885029,15.0001585 6.97051295,14.9859992 6.70044886,14.9569897 C2.58905118,14.5163225 -0.397539926,10.8127837 0.0431273091,6.70138606 C0.256553917,4.70940439 1.23251442,2.92014346 2.79211727,1.66272229 C4.35137477,0.40495578 6.30605859,-0.170052799 8.29873096,0.043719159 C12.4101286,0.484386394 15.3967197,4.18792514 14.9560525,8.29966816 C14.5447401,12.1406564 11.2846314,15.0001585 7.50511552,15.0001585 L7.50511552,15.0001585 Z M9.86420477,5.08272828 L6.84860422,8.09901952 L5.13428435,6.38469965 L4.22463114,7.29435286 L6.84860422,9.9179806 L10.773858,5.99238149 L9.86420477,5.08272828 Z" id="Fill-1"></path>
                    </g>
                </g>
            </g>
        </g>
    </g>
</svg>