<svg xmlns="http://www.w3.org/2000/svg" width="27" height="27" viewBox="0 0 27 27">
    <path fill="#0066AD" fill-rule="nonzero" d="M15.75 7.313v7.875a.542.542 0 0 1-.562.563H9.563a.542.542 0 0 1-.562-.562v-1.125a.542.542 0 0 1 .563-.562H13.5V7.315a.542.542 0 0 1 .563-.562h1.125a.542.542 0 0 1 .563.563l-.001-.003zm7.313 6.188a9.347 9.347 0 0 0-1.283-4.8 9.533 9.533 0 0 0-3.48-3.48 9.615 9.615 0 0 0-9.6 0 9.533 9.533 0 0 0-3.48 3.48 9.615 9.615 0 0 0 0 9.6 9.533 9.533 0 0 0 3.48 3.48 9.615 9.615 0 0 0 9.6 0 9.533 9.533 0 0 0 3.48-3.48 9.347 9.347 0 0 0 1.283-4.801v.001zm3.938 0a13.206 13.206 0 0 1-1.811 6.776 13.439 13.439 0 0 1-4.913 4.913 13.586 13.586 0 0 1-13.553 0 13.439 13.439 0 0 1-4.913-4.913 13.586 13.586 0 0 1 0-13.553 13.439 13.439 0 0 1 4.913-4.913 13.586 13.586 0 0 1 13.553 0 13.439 13.439 0 0 1 4.913 4.913A13.206 13.206 0 0 1 27 13.5l.001.001z"/>
</svg>
