<?xml version="1.0" encoding="UTF-8"?>
<svg width="16px" height="13px" viewBox="0 0 16 13" version="1.1" xmlns="http://www.w3.org/2000/svg" xmlns:xlink="http://www.w3.org/1999/xlink">
    <!-- Generator: sketchtool 46.1 (44463) - http://www.bohemiancoding.com/sketch -->
    <title>0654672A-78A8-406D-AB58-C743C7D5E52A</title>
    <desc>Created with sketchtool.</desc>
    <defs></defs>
    <g id="01-Dashboard" stroke="none" stroke-width="1" fill="none" fill-rule="evenodd">
        <g id="01-1-Dealer-Group-Work-Queue" transform="translate(-1179.000000, -459.000000)">
            <g id="list" transform="translate(47.000000, 410.000000)">
                <g id="list/work-queue" transform="translate(1.000000, 43.000000)" font-size="14" font-family="Lato-Regular, Lato" font-weight="normal">
                    <text id="200-829839" fill="#00519E">
                        <tspan x="10.5545455" y="18">P200-93801</tspan>
                    </text>
                    <text id="Jacob-Matthews" fill="#666666">
                        <tspan x="137.209091" y="18">Juan Perez</tspan>
                    </text>
                    <text id="Loretta-Miller" fill="#666666">
                        <tspan x="290.836364" y="18">Jones Wild</tspan>
                    </text>
                    <text id="Lubbock,-TX" fill="#666666">
                        <tspan x="425.7" y="18">Buffalo, NY</tspan>
                    </text>
                    <text id="$16,936" fill="#666666">
                        <tspan x="554.7" y="18">$16,936</tspan>
                    </text>
                    <text id="48-months" fill="#666666">
                        <tspan x="648.518182" y="18">48 months</tspan>
                    </text>
                    <text id="Spark-5dr-HB" fill="#666666">
                        <tspan x="754.063636" y="18">Spark 5dr HB</tspan>
                    </text>
                    <text id="Qualified" fill="#666666">
                        <tspan x="1010.89091" y="18">Awaiting Decision</tspan>
                    </text>
                    <text id="Apr-15,-2017" fill="#666666">
                        <tspan x="881.890909" y="18">Apr 15, 2017</tspan>
                    </text>
                </g>
                <g id="Ui-icon/warning" transform="translate(1132.000000, 48.000000)">
                    <path d="M8.86824314,1.5194255 L15.1450635,12.5038611 L15.1450635,12.5038611 C15.4190734,12.9833785 15.2524767,13.5942332 14.7729593,13.8682431 C14.6218616,13.9545847 14.4508473,14 14.2768203,14 L1.72317968,14 L1.72317968,14 C1.17089493,14 0.723179678,13.5522847 0.723179678,13 C0.723179678,12.8259731 0.768594996,12.6549588 0.854936536,12.5038611 L7.13175686,1.5194255 L7.13175686,1.5194255 C7.40576683,1.03990805 8.01662149,0.873311325 8.49613894,1.14732129 C8.65117022,1.2359106 8.77965384,1.36439422 8.86824314,1.5194255 Z" id="Triangle" fill="#F82208"></path>
                    <path d="M8.54180829,5 L8.54180829,7.72195785 C8.54180829,8.01382426 8.52436002,8.30330697 8.48946295,8.59041468 C8.45456588,8.8775224 8.40856589,9.17017753 8.35146159,9.46838885 L7.3521414,9.46838885 C7.2950371,9.17017753 7.24903711,8.8775224 7.21414004,8.59041468 C7.17924297,8.30330697 7.1617947,8.01382426 7.1617947,7.72195785 L7.1617947,5 L8.54180829,5 Z M7,11.1862678 C7,11.0720593 7.02141379,10.9657834 7.06424201,10.8674371 C7.10707023,10.7690908 7.16575988,10.6834357 7.24031271,10.6104691 C7.31486554,10.5375025 7.40290001,10.4796059 7.50441876,10.4367777 C7.60593751,10.3939495 7.71697198,10.3725357 7.83752549,10.3725357 C7.95490655,10.3725357 8.06435481,10.3939495 8.16587356,10.4367777 C8.2673923,10.4796059 8.35621988,10.5375025 8.43235894,10.6104691 C8.508498,10.6834357 8.56798075,10.7690908 8.61080897,10.8674371 C8.6536372,10.9657834 8.67505099,11.0720593 8.67505099,11.1862678 C8.67505099,11.3004764 8.6536372,11.4075454 8.61080897,11.5074779 C8.56798075,11.6074104 8.508498,11.6938587 8.43235894,11.7668253 C8.35621988,11.8397919 8.2673923,11.8968953 8.16587356,11.9381373 C8.06435481,11.9793793 7.95490655,12 7.83752549,12 C7.71697198,12 7.60593751,11.9793793 7.50441876,11.9381373 C7.40290001,11.8968953 7.31486554,11.8397919 7.24031271,11.7668253 C7.16575988,11.6938587 7.10707023,11.6074104 7.06424201,11.5074779 C7.02141379,11.4075454 7,11.3004764 7,11.1862678 Z" id="!" fill="#FFFFFF"></path>
                </g>
            </g>
        </g>
    </g>
</svg>